<svg width="800" height="800" viewBox="0 0 800 800" fill="none" xmlns="http://www.w3.org/2000/svg">
<path d="M147.55 680.025L91.3999 50H708.6L652.375 679.925L399.625 750L147.55 680.025Z" fill="#1572B6"/>
<path d="M400 696.45L604.25 639.825L652.3 101.525H400V696.45Z" fill="#33A9DC"/>
<path d="M400 329.775H502.25L509.3 250.65H400V173.375H400.275H593.75L591.9 194.1L572.925 407.05H400V329.775Z" fill="white"/>
<path d="M400.475 530.45L400.125 530.55L314.075 507.3L308.575 445.675H266.75H231L241.825 567L400.1 610.95L400.475 610.85V530.45Z" fill="#EBEBEB"/>
<path d="M495.675 403.775L486.375 507.25L400.2 530.5V610.9L558.6 567L559.775 553.95L573.2 403.775H495.675Z" fill="white"/>
<path d="M400.275 173.375V221.375V250.45V250.65H213.875H213.625L212.075 233.275L208.55 194.1L206.7 173.375H400.275Z" fill="#EBEBEB"/>
<path d="M400 329.775V377.775V406.85V407.05H315.275H315.025L313.475 389.675L309.975 350.5L308.125 329.775H400Z" fill="#EBEBEB"/>
</svg>
