<svg width="800" height="800" viewBox="0 0 800 800" fill="none" xmlns="http://www.w3.org/2000/svg">
<path d="M466.972 399.398C466.972 363.538 436.99 334.463 400 334.463C363.015 334.463 333.027 363.538 333.027 399.398C333.027 435.263 363.015 464.335 400 464.335C436.99 464.335 466.972 435.263 466.972 399.398Z" fill="#53C1DE"/>
<path fill-rule="evenodd" clip-rule="evenodd" d="M617.51 278.842C631.652 223.119 649.43 119.787 586.76 84.754C524.382 49.8737 443.21 116.711 400.348 156.829C357.61 117.11 274.157 50.5592 211.541 85.7035C149.188 120.701 168.416 222.32 182.872 278.392C124.708 294.41 25 328.91 25 399.397C25 469.685 124.604 507.22 182.424 523.222C167.914 579.605 149.649 679.772 212.082 714.692C274.932 749.83 358.125 684.862 401.385 644.305C444.523 684.66 524.915 750.052 587.305 715.035C649.89 679.907 633.59 577.96 619.133 521.562C675.183 505.525 775 468.807 775 399.397C775 329.587 674.757 294.807 617.51 278.842ZM610.405 491.675C600.913 462.54 588.1 431.557 572.428 399.552C587.388 368.302 599.703 337.72 608.93 308.772C650.898 320.57 742.963 347.532 742.963 399.397C742.963 451.75 654.615 478.967 610.405 491.675ZM571.25 688.15C524.7 714.275 455.552 651.74 423.695 622.022C444.83 599.61 465.95 573.555 486.562 544.622C522.822 541.505 557.075 536.405 588.14 529.442C598.315 569.335 618.005 661.907 571.25 688.15ZM228.091 687.777C181.536 661.75 202.814 572.365 213.489 530.832C244.208 537.422 278.215 542.162 314.56 545.02C335.308 573.33 357.04 599.352 378.94 622.142C351.883 647.52 274.863 713.925 228.091 687.777ZM57.0373 399.397C57.0373 346.85 148.552 320.082 191.476 308.315C200.863 337.912 213.174 368.86 228.031 400.155C212.981 431.915 200.494 463.352 191.021 493.3C150.092 481.94 57.0373 451.977 57.0373 399.397ZM227.592 112.588C274.337 86.354 346.868 150.246 377.898 179.003C356.11 201.688 334.577 227.515 314.007 255.662C278.735 258.832 244.969 263.922 213.927 270.742C202.281 225.518 180.898 138.795 227.592 112.588ZM509.482 289.427C533.412 292.355 556.34 296.25 577.868 301.015C571.405 321.1 563.35 342.102 553.862 363.632C540.11 338.332 525.347 313.54 509.482 289.427ZM400.357 201.202C415.135 216.724 429.935 234.057 444.495 252.862C414.963 251.507 385.383 251.502 355.85 252.842C370.423 234.212 385.35 216.904 400.357 201.202ZM246.412 363.61C237.082 342.155 229.1 321.06 222.581 300.687C243.98 296.045 266.8 292.25 290.575 289.37C274.665 313.43 259.927 338.212 246.412 363.61ZM291.258 511.642C266.698 508.985 243.532 505.382 222.139 500.867C228.761 480.137 236.919 458.587 246.449 436.67C260.15 462.332 275.113 487.355 291.258 511.642ZM401.245 599.787C386.06 583.9 370.912 566.327 356.12 547.427C385.82 548.557 415.578 548.56 445.275 547.275C430.67 566.52 415.923 584.117 401.245 599.787ZM554.168 435.555C564.193 457.71 572.643 479.142 579.355 499.522C557.608 504.335 534.13 508.21 509.392 511.087C525.375 486.517 540.373 461.34 554.168 435.555ZM468.682 514.852C423.252 518 377.54 517.965 332.095 515.11C306.273 478.537 283.285 440.075 263.442 400.145C283.19 360.297 306.01 321.91 331.71 285.395C377.188 282.062 422.945 282.052 468.423 285.415C493.903 321.927 516.688 360.215 536.893 399.702C516.928 439.53 493.987 477.995 468.682 514.852ZM570.757 111.665C617.515 137.813 596.702 230.681 586.487 271.065C555.372 264.102 521.582 258.922 486.207 255.702C465.597 227.251 444.245 201.379 422.81 178.987C454.237 149.61 524.452 85.7722 570.757 111.665Z" fill="#53C1DE"/>
</svg>
