<svg width="800" height="800" viewBox="0 0 800 800" fill="none" xmlns="http://www.w3.org/2000/svg">
<path d="M400 159.375C293.333 159.375 226.667 212.708 200 319.375C240 266.042 286.667 246.042 340 259.375C370.43 266.982 392.179 289.058 416.253 313.495C455.471 353.302 500.861 399.375 600 399.375C706.667 399.375 773.333 346.042 800 239.375C760 292.708 713.333 312.708 660 299.375C629.57 291.768 607.821 269.692 583.747 245.255C544.529 205.448 499.139 159.375 400 159.375ZM200 399.375C93.3333 399.375 26.6667 452.708 0 559.375C40 506.042 86.6667 486.042 140 499.375C170.43 506.982 192.179 529.058 216.253 553.495C255.471 593.302 300.861 639.375 400 639.375C506.667 639.375 573.333 586.042 600 479.375C560 532.708 513.333 552.708 460 539.375C429.57 531.768 407.821 509.692 383.747 485.255C344.529 445.448 299.139 399.375 200 399.375Z" fill="url(#paint0_linear_51_362)"/>
<defs>
<linearGradient id="paint0_linear_51_362" x1="-2222.22" y1="15519.4" x2="66870.9" y2="55356.8" gradientUnits="userSpaceOnUse">
<stop stop-color="#2298BD"/>
<stop offset="1" stop-color="#0ED7B5"/>
</linearGradient>
</defs>
</svg>
