<svg width="800" height="800" viewBox="0 0 800 800" fill="none" xmlns="http://www.w3.org/2000/svg">
<path d="M220.419 217.8L168.713 166.094L168.932 539.844L169.55 557.312C169.807 565.531 171.332 574.806 173.875 584.419L583.575 728.887L685.988 683.512L686.025 683.387L220.419 217.8Z" fill="#00D2B8"/>
<path d="M173.876 584.419L173.901 584.444C173.876 584.275 173.788 584.087 173.788 583.912C173.788 584.087 173.813 584.25 173.876 584.419ZM685.988 683.512L583.576 728.887L173.901 584.444C181.726 614.469 199.051 648.219 217.694 666.675L351.394 799.612L648.676 800L686.026 683.387L685.988 683.512Z" fill="#55DDCA"/>
<path d="M9.48138 406.612C-3.75612 420.744 2.81888 449.894 24.1314 471.369L116.063 564.062L173.875 584.419C171.331 574.806 169.806 565.531 169.55 557.312L168.931 539.844L168.713 166.094L9.48138 406.612Z" fill="#0081C6"/>
<path d="M586.938 170.894C577.325 168.437 568.107 166.919 559.75 166.656L541.288 166.019L168.713 166.069L686.075 683.387H686.119L731.557 580.875L586.938 170.894Z" fill="#0079B3"/>
<path d="M586.469 170.794C586.669 170.837 586.825 170.894 586.956 170.912L586.938 170.894C586.825 170.837 586.669 170.837 586.469 170.794ZM669.119 214.787C650.344 195.856 617.038 178.65 586.956 170.912L731.556 580.875L686.119 683.387H686.075L797.113 647.925L797.35 343.5L669.119 214.787Z" fill="#00A4E4"/>
<path d="M566.682 113.431L474.013 21.4437C452.582 0.212443 423.419 -6.39381 409.325 6.80619L168.713 166.069L541.288 166.019L559.75 166.656C568.107 166.919 577.325 168.437 586.938 170.894L566.682 113.431Z" fill="#00D2B8"/>
</svg>
