<svg width="800" height="800" viewBox="0 0 800 800" fill="none" xmlns="http://www.w3.org/2000/svg">
<g clip-path="url(#clip0_53_391)">
<path d="M800 0H0V800H800V0Z" fill="#FFCA28"/>
<path d="M515 672.197L566.538 638.092C570.578 650.782 596.155 680.92 628.462 680.92C660.77 680.92 675.77 663.275 675.77 651.575C675.77 619.695 642.78 608.455 626.935 603.057C624.35 602.177 622.225 601.452 620.77 600.82C620.023 600.495 618.895 600.062 617.448 599.51C599.825 592.777 534.807 567.937 534.807 495.932C534.807 416.625 611.345 407.505 628.655 407.505C639.977 407.505 694.422 408.892 721.537 459.847L671.537 494.745C660.577 472.537 642.365 465.202 631.155 465.202C603.463 465.202 597.692 485.502 597.692 494.745C597.692 520.675 627.78 532.297 653.182 542.11C659.83 544.677 666.155 547.12 671.537 549.665C699.23 562.75 740 584.165 740 651.575C740 685.34 711.68 740.005 640.385 740.005C544.615 740.005 519.23 682.507 515 672.197Z" fill="#3E3E3E"/>
<path d="M265 678.967L318.717 644.882C322.925 657.565 339.282 680.95 363.012 680.95C386.745 680.95 398.892 656.575 398.892 644.882V415.005H464.955V644.882C466.025 676.59 448.44 740.005 370.83 740.005C299.475 740.005 269.811 697.597 265 678.967Z" fill="#3E3E3E"/>
</g>
<defs>
<clipPath id="clip0_53_391">
<rect width="800" height="800" rx="24" fill="white"/>
</clipPath>
</defs>
</svg>
